<svg width="393" height="302" viewBox="0 0 393 302" fill="none" xmlns="http://www.w3.org/2000/svg">
<path d="M3.84661 301.768C4.70514 299.704 7.06091 297.94 11.6018 296.484C16.0679 295.052 22.122 294.08 29.5602 293.199C44.3206 291.451 64.248 290.095 86.2504 285.945C130.375 277.622 183.4 257.987 223.184 200.996L219.904 198.706C180.932 254.535 129.04 273.804 85.509 282.014C63.6835 286.131 44.0985 287.45 29.0897 289.227C21.6433 290.109 15.2486 291.114 10.3802 292.675C5.58665 294.212 1.72224 296.46 0.153389 300.232L3.84661 301.768ZM223.184 200.996C242.943 172.69 257.318 146.621 269.299 123.351C281.309 100.024 290.832 79.683 301.007 62.5576C311.153 45.4792 321.818 31.8391 335.942 21.9709C350.044 12.118 367.752 5.91742 392.157 3.99382L391.843 0.00618388C366.891 1.97291 348.458 8.34646 333.651 18.692C318.865 29.0223 307.852 43.205 297.568 60.5145C287.312 77.7768 277.652 98.3886 265.742 121.52C253.804 144.708 239.522 170.603 219.904 198.706L223.184 200.996Z" fill="#FFDD00" fill-opacity="0.12"/>
</svg>
