<svg width="388" height="303" viewBox="0 0 388 303" fill="none" xmlns="http://www.w3.org/2000/svg">
<path d="M3.83826 302.288C4.76445 300.127 7.21862 298.327 11.8596 296.878C16.4327 295.45 22.6148 294.518 30.2073 293.694C45.2757 292.061 65.6114 290.889 88.1521 286.841C133.359 278.723 187.969 258.969 230.127 200.351L226.88 198.016C185.535 255.503 132.04 274.896 87.445 282.904C65.0846 286.92 45.0948 288.057 29.7761 289.718C22.175 290.542 15.6481 291.504 10.6672 293.06C5.75412 294.594 1.80923 296.868 0.161679 300.712L3.83826 302.288ZM230.127 200.351C272.013 142.113 285.79 94.3933 301.869 60.9214C309.928 44.1453 318.529 30.9764 331.43 21.471C344.32 11.9737 361.719 5.97815 387.653 3.99417L387.347 0.0058271C360.948 2.02545 342.744 8.16659 329.057 18.2506C315.382 28.3265 306.432 42.1835 298.263 59.1893C281.886 93.2812 268.498 140.15 226.88 198.016L230.127 200.351Z" fill="#D71F31" fill-opacity="0.06"/>
</svg>
